PathFileType	4	(X/Y/Z)	S00_P00_T01_BalancingTrial_0-100.trc
DataRate	CameraRate	NumFrames	NumMarkers	Units	OrigDataRate	OrigDataStartFrame	OrigNumFrames
60	60	4	21	m	60	0	100
Frame#	Time	RHip			RKnee			RAnkle			RBigToe			RSmallToe			RHeel			LHip			LKnee			LAnkle			LBigToe			LSmallToe			LHeel			Neck			Head			Nose			RShoulder			RElbow			RWrist			LShoulder			LElbow			LWrist		
		X1	Y1	Z1	X2	Y2	Z2	X3	Y3	Z3	X4	Y4	Z4	X5	Y5	Z5	X6	Y6	Z6	X7	Y7	Z7	X8	Y8	Z8	X9	Y9	Z9	X10	Y10	Z10	X11	Y11	Z11	X12	Y12	Z12	X13	Y13	Z13	X14	Y14	Z14	X15	Y15	Z15	X16	Y16	Z16	X17	Y17	Z17	X18	Y18	Z18	X19	Y19	Z19	X20	Y20	Z20	X21	Y21	Z21
1	0.0166666666666666	-0.06499776880731566	0.9015132201416931	-1.400573592601662	-0.03953823544185486	0.492867019567596	-1.4488398285119728	0.043722239677169976	0.14392102600476314	-1.5950232476837736	-0.016930358012915005	0.0644327163169074	-1.4465817927963804	-0.023659406879721408	0.07649613530772952	-1.5049556708579659	0.05998555151669301	0.10449043759287764	-1.6357123947955179	0.1041292518537915	0.908745223446084	-1.4589563098305753	0.03046064437340479	0.5362746404904444	-1.2634604115734183	0.013825475610293245	0.18117305106434006	-1.1375271880026123	-0.02223013087295643	0.0953830120230884	-1.0124216532378536	0.002584762658632894	0.11342017625304518	-0.9900959019616274	0.023246184087225872	0.10279709923389144	-1.2269687090414783	-0.028691117162967322	1.4640467742574672	-1.3966877075073412	-0.056374215891602616	1.7024200638322975	-1.2516128899060597	-0.05303771135621427	1.5572408593332574	-1.197046075340987	-0.16744208664829774	1.392947588015956	-1.4130332081978962	-0.27295446083450237	1.145566919022591	-1.479721556870569	-0.36308166270002984	0.9229650570108854	-1.3696441531607817	0.14493460846256737	1.4142103983448602	-1.4453320504539162	0.27704655511782245	1.1648130235864798	-1.4725039614569544	0.35463254276602507	0.9377377304713113	-1.4579500717625882
2	0.0333333333333333	-0.07104221539355526	0.9043857718248947	-1.3935290026984144	-0.03880590057607643	0.49350054440362806	-1.4465460135082704	0.04217122697865282	0.14565147789237598	-1.5952702035359656	-0.017262385969200322	0.06489677662459267	-1.4471475723733471	-0.023450287546169128	0.07552904377572257	-1.5033241603839371	0.05909754623415227	0.10738317958349775	-1.6363855978384942	0.10071723690326365	0.9082867353873164	-1.4465696738127227	0.03768271444426341	0.5291465823978586	-1.2425930838408041	0.011219622298439685	0.17260176045855496	-1.1496284034840782	-0.02350694902549537	0.09085042852305798	-1.0128543960363166	-0.0017348668299804462	0.09846713343485605	-1.0095161312979808	0.019981983335509785	0.10450598527893193	-1.2176632044619315	-0.023391910591897387	1.4638619184705208	-1.3856850474961646	-0.043915425552927066	1.7026548729321067	-1.2512145404992974	-0.03847443176113143	1.5563502491214958	-1.1985564371499857	-0.1639849359008924	1.3941321603107173	-1.4213321802361234	-0.2759160080730408	1.148793048847556	-1.4801962058938765	-0.36570541421402863	0.9359417588116375	-1.3600893869080737	0.14974467918964884	1.4100972780266512	-1.4377593851411465	0.28124197957328234	1.1600814529845636	-1.456070133896533	0.35944636657245566	0.9320159286709571	-1.4383584093558022
3	0.05	-0.07645198561087345	0.9069940575482706	-1.3860215927221442	-0.038227439228741306	0.4940966222130927	-1.4441913244044573	0.04056369624500287	0.14734992674572642	-1.5955052910731296	-0.017867244863392036	0.06548552267977617	-1.447033141841063	-0.023569211101514564	0.07515743352090332	-1.5020826083478387	0.058118048710821824	0.11063680953085854	-1.6371707607470543	0.09720199175920112	0.9080798844258197	-1.4346185098781317	0.04490296203786438	0.5227327874168544	-1.2224064807806698	0.008571391007693174	0.1653294507188115	-1.1604310273260348	-0.025311324790691963	0.08630322930003101	-1.0131031181999806	-0.006239001757587464	0.08592344877463595	-1.025612141889798	0.016709567692128495	0.10631979093177488	-1.2092838442594955	-0.017674284528190292	1.4637634851026238	-1.3748427241451053	-0.03143945788304632	1.702888000773387	-1.2490642166058663	-0.025755355347066307	1.5557296820248763	-1.198508612163198	-0.16003403293788873	1.3961490903770342	-1.4255817971801816	-0.27883793278827673	1.1531479796380462	-1.4784308333066016	-0.3689740647493769	0.9489960622841306	-1.3490391159795048	0.15414429522636172	1.406907438321292	-1.4308213593572157	0.2851207810674118	1.1550622245573523	-1.44029495729164	0.3635767731251191	0.9264522765272564	-1.4192295497769492
4	0.0666666666666666	-0.08094892532689263	0.9091861124521752	-1.377468194814903	-0.03816016569880824	0.4948452671561544	-1.4412347796861842	0.038794929249893986	0.14901982475943645	-1.5955454652361543	-0.018881909828118323	0.06633042749206808	-1.4458379719022938	-0.024144237328419322	0.07564123174308242	-1.5011868518142375	0.057068706303729747	0.1143584710193943	-1.6381125543681807	0.09349261870507858	0.9080862478436121	-1.423134046833902	0.051277140359255104	0.517633743433563	-1.2039577995786597	0.005918700949584949	0.159919810614687	-1.1692039690213791	-0.027231072425252658	0.08212569818761924	-1.0128943064012903	-0.01040441018962013	0.07722805607915914	-1.0365072461816098	0.013491397061959851	0.1081885273312198	-1.202206922593996	-0.011191919722602854	1.463813828185207	-1.3641796776284825	-0.01876052426662707	1.7030933248098703	-1.2437223159825281	-0.01578305146680219	1.5556654443577438	-1.1950548290626313	-0.15506064269938122	1.3995831233356526	-1.4223134646599132	-0.28138363213027867	1.1596958040057765	-1.4723493709012099	-0.3734371547691916	0.9626124428478308	-1.3354724348256115	0.15808200884511175	1.4050796793839504	-1.424636248866425	0.2883791816150265	1.1496954209767243	-1.4259619080567116	0.3664280981626599	0.9211729638784389	-1.4010367753824369
